<?xml version="1.0" encoding="UTF-8" standalone="no"?>
<!DOCTYPE svg PUBLIC "-//W3C//DTD SVG 1.1//EN" "http://www.w3.org/Graphics/SVG/1.1/DTD/svg11.dtd">
<svg viewBox="0 0 256 256" height="256.0pt" width="256.0pt" xmlns="http://www.w3.org/2000/svg" version="1.1">
<path d="M 0.00 0.00 L 256.00 0.00 L 256.00 256.00 L 0.00 256.00 L 0.00 0.00 Z" fill="#ffffff" />
<path d="M 3.39 74.39 C 7.71 73.22 13.40 74.21 18.00 73.88 C 20.48 74.12 24.33 73.26 26.43 74.51 C 27.12 77.60 26.65 81.03 26.74 84.19 C 18.83 84.19 10.92 84.19 3.01 84.19 C 3.15 81.04 2.55 77.42 3.39 74.39 Z" fill="#000000" />
<path d="M 3.00 86.80 C 10.92 86.80 18.83 86.79 26.75 86.80 C 26.76 100.76 26.75 114.72 26.75 128.68 C 94.25 128.69 161.75 128.69 229.25 128.68 C 229.25 114.72 229.24 100.76 229.25 86.80 C 237.17 86.79 245.08 86.80 253.00 86.80 C 253.00 118.56 253.00 150.33 253.00 182.09 C 245.08 182.09 237.17 182.10 229.25 182.09 C 229.24 172.19 229.25 162.30 229.25 152.40 C 161.75 152.39 94.25 152.39 26.75 152.40 C 26.75 162.30 26.76 172.19 26.75 182.09 C 18.83 182.10 10.92 182.09 3.00 182.09 C 3.00 150.33 3.00 118.56 3.00 86.80 Z" fill="#000000" />
<path d="M 55.51 88.65 C 61.25 86.46 68.86 88.86 71.28 94.78 C 72.79 98.57 71.16 102.67 67.74 104.75 C 61.74 108.48 52.25 105.94 49.92 98.97 C 48.51 94.45 51.29 90.21 55.51 88.65 Z" fill="#000000" />
<path d="M 196.02 87.81 C 200.26 88.41 202.20 93.15 202.22 96.96 C 202.31 102.98 202.24 109.01 202.25 115.04 C 202.26 118.75 201.20 122.83 197.64 124.64 C 195.26 125.39 192.47 125.03 190.00 125.11 C 156.33 125.08 122.64 125.09 88.97 125.11 C 86.92 125.07 85.04 124.97 83.39 123.61 C 79.86 120.70 78.94 116.40 78.99 112.01 C 79.10 107.58 78.57 102.79 79.64 98.48 C 80.81 94.62 83.51 90.98 87.94 91.11 C 99.98 91.08 112.03 91.06 124.06 91.12 C 126.81 91.02 128.80 92.75 130.03 95.06 C 131.83 98.31 131.41 102.67 131.45 106.29 C 150.62 106.30 169.78 106.29 188.94 106.30 C 189.02 102.31 188.62 98.14 189.31 94.20 C 190.03 91.07 192.41 87.56 196.02 87.81 Z" fill="#000000" />
<path d="M 39.99 104.85 C 43.17 104.95 46.36 105.80 49.50 106.32 C 56.07 107.58 62.71 108.56 69.24 109.94 C 72.93 110.76 75.42 114.26 75.11 118.00 C 74.83 121.68 71.79 124.84 68.06 125.01 C 61.39 125.25 54.68 125.01 48.00 125.10 C 43.98 124.85 38.09 126.14 35.08 122.92 C 32.08 120.16 32.67 115.62 32.80 111.93 C 32.97 108.16 36.24 104.99 39.99 104.85 Z" fill="#000000" /></svg>