<?xml version="1.0" encoding="UTF-8" standalone="no"?>
<!DOCTYPE svg PUBLIC "-//W3C//DTD SVG 1.1//EN" "http://www.w3.org/Graphics/SVG/1.1/DTD/svg11.dtd">
<svg viewBox="0 0 256 256" height="256.0pt" width="256.0pt" xmlns="http://www.w3.org/2000/svg" version="1.1">
<path d="M 0.00 0.00 L 256.00 0.00 L 256.00 256.00 L 229.40 256.00 C 239.39 254.49 248.42 249.52 254.07 241.01 C 256.47 237.20 255.89 231.59 252.54 228.52 C 250.72 226.85 248.61 226.28 246.35 225.44 C 244.55 225.88 242.62 226.13 240.90 226.83 C 237.43 228.55 236.16 231.97 232.76 233.84 C 227.69 236.79 221.49 236.27 215.99 235.01 C 211.08 233.88 207.49 231.19 203.15 228.80 C 182.43 217.02 161.86 205.01 141.10 193.32 C 148.98 184.13 156.80 174.90 164.52 165.58 C 169.46 159.59 174.39 153.70 175.88 145.82 C 177.40 139.27 175.37 131.94 171.60 126.49 C 168.01 121.80 163.63 117.64 158.81 114.21 C 143.94 103.37 128.84 92.83 113.81 82.21 C 108.20 78.42 102.82 74.25 97.06 70.71 C 92.44 76.70 90.02 84.20 90.20 91.76 C 90.86 103.00 97.24 113.38 106.40 119.73 C 113.86 124.59 121.33 129.47 128.77 134.37 C 132.12 136.73 136.90 139.73 137.93 143.96 C 139.31 147.71 136.69 151.61 134.47 154.45 C 128.14 162.48 121.80 170.52 115.43 178.53 C 83.26 160.05 51.05 141.65 18.90 123.14 C 15.54 121.15 11.75 120.04 8.04 121.85 C 2.76 123.90 0.55 130.99 3.37 135.80 C 4.32 137.81 5.92 139.10 7.80 140.22 C 71.95 176.99 136.09 213.80 200.25 250.59 C 205.93 253.68 211.99 255.02 218.33 256.00 L 0.00 256.00 L 0.00 0.00 Z" fill="#ffffff" />
<path d="M 216.28 2.22 C 225.24 0.03 235.30 3.84 240.47 11.50 C 245.09 18.05 245.78 26.98 242.40 34.23 C 239.16 41.88 231.26 47.11 223.02 47.52 C 216.34 47.99 209.25 45.29 204.70 40.35 C 197.67 32.86 196.50 20.83 202.17 12.24 C 205.29 7.07 210.51 3.70 216.28 2.22 Z" fill="#000000" />
<path d="M 79.27 13.08 L 80.05 12.93 C 83.62 15.36 84.49 18.65 84.93 22.73 C 84.61 24.59 84.30 26.44 83.94 28.28 C 93.71 35.69 103.71 42.79 113.54 50.11 C 114.85 48.86 116.10 47.62 117.52 46.51 C 132.80 35.06 151.18 30.79 170.00 30.46 C 177.68 30.39 185.85 33.08 191.29 38.66 C 194.80 42.50 196.90 47.84 196.42 53.07 C 195.57 67.05 191.01 81.17 187.00 94.51 C 197.81 101.79 208.88 108.83 219.18 116.82 C 222.05 119.27 224.81 122.17 225.65 125.97 C 226.07 128.17 225.32 130.53 222.96 131.15 C 216.76 132.68 210.42 129.67 204.81 127.32 C 196.70 123.72 188.46 120.37 180.54 116.47 C 175.39 113.64 170.14 111.24 166.38 106.54 C 164.10 103.35 163.94 99.78 163.98 96.00 C 164.08 90.87 163.65 86.08 164.57 81.01 C 159.06 83.21 153.61 85.57 148.09 87.71 C 125.01 70.58 101.79 53.62 78.62 36.61 C 75.90 38.15 73.04 40.15 69.99 40.89 C 66.71 41.27 63.92 39.78 61.16 38.27 C 63.62 34.72 66.31 31.35 68.82 27.83 C 65.89 24.28 62.90 20.81 60.25 17.04 C 64.23 18.80 68.26 20.44 72.20 22.28 C 74.64 19.30 76.62 15.87 79.27 13.08 Z" fill="#000000" />
<path d="M 97.06 70.71 C 102.82 74.25 108.20 78.42 113.81 82.21 C 128.84 92.83 143.94 103.37 158.81 114.21 C 163.63 117.64 168.01 121.80 171.60 126.49 C 175.37 131.94 177.40 139.27 175.88 145.82 C 174.39 153.70 169.46 159.59 164.52 165.58 C 156.80 174.90 148.98 184.13 141.10 193.32 C 161.86 205.01 182.43 217.02 203.15 228.80 C 207.49 231.19 211.08 233.88 215.99 235.01 C 221.49 236.27 227.69 236.79 232.76 233.84 C 236.16 231.97 237.43 228.55 240.90 226.83 C 242.62 226.13 244.55 225.88 246.35 225.44 C 248.61 226.28 250.72 226.85 252.54 228.52 C 255.89 231.59 256.47 237.20 254.07 241.01 C 248.42 249.52 239.39 254.49 229.40 256.00 L 218.33 256.00 C 211.99 255.02 205.93 253.68 200.25 250.59 C 136.09 213.80 71.95 176.99 7.80 140.22 C 5.92 139.10 4.32 137.81 3.37 135.80 C 0.55 130.99 2.76 123.90 8.04 121.85 C 11.75 120.04 15.54 121.15 18.90 123.14 C 51.05 141.65 83.26 160.05 115.43 178.53 C 121.80 170.52 128.14 162.48 134.47 154.45 C 136.69 151.61 139.31 147.71 137.93 143.96 C 136.90 139.73 132.12 136.73 128.77 134.37 C 121.33 129.47 113.86 124.59 106.40 119.73 C 97.24 113.38 90.86 103.00 90.20 91.76 C 90.02 84.20 92.44 76.70 97.06 70.71 Z" fill="#000000" /></svg>