<?xml version="1.0" encoding="UTF-8" standalone="no"?>
<!DOCTYPE svg PUBLIC "-//W3C//DTD SVG 1.1//EN" "http://www.w3.org/Graphics/SVG/1.1/DTD/svg11.dtd">
<svg viewBox="0 0 512 512" height="512.0pt" width="512.0pt" xmlns="http://www.w3.org/2000/svg" version="1.1">
<path d="M 0.00 0.00 L 512.00 0.00 L 512.00 512.00 L 324.62 512.00 C 336.00 510.24 345.02 500.68 345.11 489.01 C 345.58 452.01 345.73 415.00 346.04 378.00 C 346.72 313.66 347.19 249.34 347.69 184.99 C 348.01 132.65 348.76 80.34 349.01 28.00 C 349.06 21.47 348.41 14.97 344.38 9.57 C 340.88 4.95 335.61 2.83 330.01 2.05 C 326.51 1.68 323.12 0.98 319.90 2.83 C 315.26 5.48 311.44 10.03 308.26 14.26 C 301.27 23.98 296.05 35.04 292.55 46.48 C 289.80 55.26 289.17 63.75 287.37 73.00 C 283.61 96.60 280.38 120.12 278.77 143.98 C 277.57 163.82 277.03 183.21 279.40 203.00 C 281.00 215.01 283.54 227.81 289.50 238.49 C 292.32 243.61 295.98 247.90 300.75 251.31 C 300.47 290.18 299.83 329.06 299.47 367.93 C 298.86 408.31 298.72 448.64 298.14 489.00 C 298.33 500.79 307.43 510.34 318.95 512.00 L 0.00 512.00 L 0.00 0.00 Z" fill="#ffffff" />
<path d="M 173.51 2.19 L 173.55 2.60 C 174.20 11.09 175.32 19.53 176.21 27.99 C 179.51 56.98 182.63 86.00 185.94 114.99 C 186.39 118.25 186.45 121.65 187.30 124.80 C 191.27 84.33 195.76 43.88 199.75 3.42 L 200.28 3.45 C 204.47 43.78 209.63 84.04 213.59 124.38 C 213.99 123.28 214.40 122.19 214.53 121.02 C 219.58 81.73 224.70 42.40 229.67 3.11 C 230.06 4.40 230.28 5.64 230.36 6.99 C 233.57 44.33 236.87 81.66 240.17 118.99 C 240.36 120.99 240.43 123.00 240.50 125.00 C 241.57 121.87 241.66 118.71 242.12 115.46 C 246.94 78.40 251.69 40.90 256.47 3.95 C 256.75 5.29 256.90 6.63 256.94 8.00 C 259.28 54.62 261.61 101.25 263.89 147.88 C 263.95 151.60 264.67 155.40 263.64 158.89 C 261.73 166.60 259.07 174.73 254.15 181.08 C 250.86 185.37 246.44 188.98 241.00 189.99 C 239.76 190.36 237.72 190.02 236.78 190.89 C 236.25 290.25 235.62 389.63 234.94 488.99 C 234.48 502.24 222.05 512.46 209.00 510.99 C 197.47 509.82 188.08 499.60 187.90 488.00 C 188.25 462.98 188.49 438.03 188.66 413.00 C 189.63 338.67 190.22 264.48 191.11 190.12 C 186.69 189.82 182.57 188.66 179.03 185.91 C 172.30 180.86 167.93 172.36 165.48 164.48 C 164.47 161.15 163.16 157.61 163.07 154.11 C 166.35 105.38 169.53 56.62 172.81 7.88 C 172.97 5.97 173.21 4.08 173.51 2.19 Z" fill="#000000" />
<path d="M 330.01 2.05 C 335.61 2.83 340.88 4.95 344.38 9.57 C 348.41 14.97 349.06 21.47 349.01 28.00 C 348.76 80.34 348.01 132.65 347.69 184.99 C 347.19 249.34 346.72 313.66 346.04 378.00 C 345.73 415.00 345.58 452.01 345.11 489.01 C 345.02 500.68 336.00 510.24 324.62 512.00 L 318.95 512.00 C 307.43 510.34 298.33 500.79 298.14 489.00 C 298.72 448.64 298.86 408.31 299.47 367.93 C 299.83 329.06 300.47 290.18 300.75 251.31 C 295.98 247.90 292.32 243.61 289.50 238.49 C 283.54 227.81 281.00 215.01 279.40 203.00 C 277.03 183.21 277.57 163.82 278.77 143.98 C 280.38 120.12 283.61 96.60 287.37 73.00 C 289.17 63.75 289.80 55.26 292.55 46.48 C 296.05 35.04 301.27 23.98 308.26 14.26 C 311.44 10.03 315.26 5.48 319.90 2.83 C 323.12 0.98 326.51 1.68 330.01 2.05 Z" fill="#000000" /></svg>