<?xml version="1.0" encoding="UTF-8" standalone="no"?>
<!DOCTYPE svg PUBLIC "-//W3C//DTD SVG 1.1//EN" "http://www.w3.org/Graphics/SVG/1.1/DTD/svg11.dtd">
<svg viewBox="0 0 512 512" height="512.0pt" width="512.0pt" xmlns="http://www.w3.org/2000/svg" version="1.1">
<path d="M 0.00 0.00 L 512.00 0.00 L 512.00 512.00 L 0.00 512.00 L 0.00 0.00 Z" fill="#ffffff" />
<path d="M 289.00 0.05 C 327.44 0.14 367.06 6.88 401.57 24.42 C 427.92 37.68 450.82 57.32 466.78 82.24 C 485.50 111.20 494.03 144.80 495.68 179.01 C 496.22 191.50 496.48 204.89 492.97 217.01 C 491.03 223.73 487.52 230.56 481.74 234.75 C 475.42 239.51 466.68 240.68 459.02 239.61 C 450.90 238.46 443.74 233.46 439.58 226.43 C 433.45 216.41 432.05 203.51 432.00 192.00 C 432.02 178.37 429.56 164.84 425.10 151.98 C 415.66 125.14 397.22 101.42 374.27 84.73 C 359.79 74.30 341.99 65.51 323.99 64.16 C 309.93 63.58 294.45 64.80 280.49 62.38 C 273.60 61.14 266.47 58.69 261.92 53.06 C 257.17 47.27 256.01 39.25 256.00 31.99 C 256.01 22.29 259.96 12.74 267.70 6.70 C 273.79 1.91 281.32 -0.04 289.00 0.05 Z" fill="#2f2f2f" />
<path d="M 111.02 17.88 C 124.58 22.50 136.45 32.55 146.25 42.75 C 162.67 59.86 174.92 79.32 189.55 97.47 C 196.74 105.43 202.23 114.62 204.41 125.23 C 209.28 147.19 199.41 172.31 179.60 183.59 C 174.61 186.50 170.40 190.17 168.94 195.99 C 167.96 200.01 168.32 203.98 169.16 207.98 C 171.35 217.70 176.32 227.12 181.28 235.71 C 192.50 254.64 205.88 272.94 221.73 288.27 C 239.99 305.91 262.34 320.24 287.97 323.55 C 293.59 324.35 299.13 322.83 303.89 319.87 C 310.72 315.70 316.35 309.56 321.64 303.62 C 324.15 300.82 326.37 297.52 329.77 295.78 C 334.58 293.22 340.67 292.87 346.00 293.17 C 356.59 293.84 367.33 297.10 377.17 300.94 C 395.04 308.08 411.87 317.99 426.65 330.32 C 439.57 340.88 452.67 351.75 464.11 363.90 C 470.30 370.59 476.74 378.31 480.21 386.81 C 482.19 391.60 482.61 396.46 481.28 401.50 C 478.86 410.88 474.03 419.75 468.83 427.87 C 453.45 451.22 430.62 470.89 404.01 480.12 C 387.97 485.84 370.86 487.34 353.97 485.47 C 331.88 483.24 310.36 476.81 290.02 468.08 C 260.66 455.45 232.92 437.76 207.60 418.36 C 175.09 393.35 145.20 364.69 117.77 334.22 C 90.40 303.55 64.75 270.84 43.10 235.86 C 35.67 223.66 28.53 211.08 23.20 197.81 C 16.37 181.05 11.02 163.49 8.82 145.48 C 6.32 125.01 8.21 104.30 16.12 85.15 C 24.45 64.83 38.37 48.08 54.91 33.89 C 62.80 27.08 70.71 21.04 80.73 17.71 C 90.56 14.33 101.23 14.39 111.02 17.88 Z" fill="#2f2f2f" />
<path d="M 104.76 50.36 C 114.46 53.71 122.89 61.90 129.59 69.44 C 142.37 84.05 153.11 101.05 163.75 117.27 C 167.76 123.45 172.24 130.67 173.47 138.03 C 174.52 144.22 172.85 150.10 168.89 154.92 C 164.63 160.43 158.80 163.26 153.73 167.73 C 144.66 176.06 140.78 187.92 140.50 200.00 C 140.15 216.46 146.16 232.72 154.07 246.93 C 162.11 261.31 171.93 274.86 182.46 287.52 C 195.77 303.43 210.57 318.30 226.85 331.18 C 239.58 341.13 253.94 350.44 269.23 355.87 C 280.62 359.83 292.45 361.45 304.26 358.22 C 318.35 354.50 329.23 345.41 338.81 334.82 C 341.59 332.00 344.09 327.97 348.19 327.18 C 353.25 326.08 358.99 327.62 363.75 329.38 C 373.12 332.90 381.98 338.20 390.30 343.71 C 405.42 353.92 419.97 365.26 433.40 377.61 C 438.15 382.24 443.61 387.24 446.64 393.21 C 448.37 396.34 446.37 398.33 445.09 401.08 C 440.06 410.51 434.61 419.39 426.88 426.87 C 419.30 434.12 410.82 440.60 401.57 445.57 C 390.57 451.38 378.52 454.77 366.00 453.91 C 346.66 452.58 327.36 447.64 309.30 440.70 C 287.95 432.48 267.50 421.19 248.47 408.53 C 226.78 394.06 206.35 377.48 187.21 359.79 C 159.47 334.16 133.97 306.05 110.70 276.33 C 95.43 256.69 80.80 236.22 68.30 214.70 C 56.36 194.33 48.21 171.66 43.74 148.51 C 41.73 137.49 40.30 125.66 41.74 114.51 C 44.10 100.96 49.21 87.56 57.57 76.55 C 64.53 67.34 73.62 59.60 83.15 53.16 C 89.60 48.89 97.42 47.74 104.76 50.36 Z" fill="#ffffff" />
<path d="M 271.00 96.02 C 282.87 95.94 294.80 96.81 306.52 98.72 C 326.25 102.13 345.39 109.20 360.97 122.04 C 374.04 132.64 383.58 146.69 389.73 162.28 C 397.21 181.45 399.76 201.54 400.00 222.01 C 400.39 232.07 395.25 242.23 387.72 248.73 C 381.77 253.93 373.85 256.43 366.00 255.95 C 357.78 255.57 349.87 252.98 344.03 246.98 C 338.37 241.01 336.16 233.08 336.03 225.00 C 335.97 213.40 334.85 202.16 330.84 191.20 C 327.82 183.19 323.42 175.77 316.88 170.14 C 310.22 164.34 301.77 161.02 293.02 160.26 C 286.02 159.72 279.02 160.19 272.03 159.32 C 263.72 158.34 254.90 156.20 248.56 150.41 C 243.30 145.63 240.77 138.99 240.19 132.02 C 239.34 122.37 241.51 111.61 248.47 104.47 C 254.48 98.37 262.63 96.17 271.00 96.02 Z" fill="#2f2f2f" /></svg>