<?xml version="1.0" standalone="no"?>
<!DOCTYPE svg PUBLIC "-//W3C//DTD SVG 20010904//EN"
 "http://www.w3.org/TR/2001/REC-SVG-20010904/DTD/svg10.dtd">
<svg version="1.0" xmlns="http://www.w3.org/2000/svg"
 width="1600.000000pt" height="1600.000000pt" viewBox="0 0 1600.000000 1600.000000"
 preserveAspectRatio="xMidYMid meet">
<metadata>
Created by potrace 1.11, written by Peter Selinger 2001-2013
</metadata>
<g transform="translate(0.000000,1600.000000) scale(0.100000,-0.100000)"
fill="#000000" stroke="none">
<path d="M2090 11679 c-37 -15 -69 -49 -95 -99 -32 -64 -37 -91 -44 -214 l-6
-110 -74 -18 c-131 -32 -201 -89 -201 -165 0 -63 43 -116 150 -187 l55 -36
-62 0 c-33 0 -143 7 -242 16 -173 15 -183 15 -219 -3 -52 -26 -79 -81 -63
-133 24 -80 262 -233 544 -350 43 -18 75 -36 70 -40 -11 -12 -99 -33 -300 -75
-95 -19 -205 -47 -244 -62 -123 -45 -167 -111 -126 -191 24 -49 58 -61 780
-287 82 -25 147 -48 144 -51 -17 -17 -219 -47 -497 -74 -417 -40 -511 -65
-555 -150 -49 -94 26 -193 189 -251 31 -10 350 -96 709 -190 555 -145 662
-176 722 -208 38 -21 71 -43 72 -48 6 -16 -97 -34 -227 -40 -69 -3 -357 0
-640 6 -510 11 -590 17 -794 56 -70 13 -94 14 -117 5 -32 -14 -59 -50 -59 -79
0 -32 63 -78 122 -90 29 -5 91 -17 138 -26 47 -9 186 -41 310 -70 215 -52 237
-55 502 -75 153 -11 288 -24 300 -29 29 -11 -197 -86 -697 -231 -501 -145
-844 -249 -890 -269 -49 -22 -68 -43 -63 -73 7 -48 115 -56 380 -27 242 26
508 40 848 46 361 6 378 5 460 -16 127 -32 123 -41 -21 -41 -134 0 -135 -1
-374 -93 -71 -28 -157 -47 -410 -91 -386 -68 -600 -115 -748 -164 -97 -32
-115 -42 -141 -76 l-31 -38 44 -39 c43 -38 45 -39 121 -39 43 0 115 7 161 15
111 19 592 137 744 182 101 30 140 36 248 40 233 10 488 -33 801 -134 158 -51
403 -150 394 -159 -3 -2 -213 7 -469 20 -380 20 -500 22 -664 15 -110 -4 -344
-13 -520 -19 -336 -11 -388 -17 -615 -75 -262 -66 -737 -245 -805 -303 -73
-62 -88 -141 -35 -185 16 -14 49 -28 72 -32 24 -4 281 -9 573 -10 495 -2 665
-8 940 -36 117 -11 146 -23 168 -67 39 -76 40 -99 28 -1045 -9 -735 -9 -922 1
-961 17 -66 51 -91 123 -91 64 0 104 25 122 76 14 40 16 800 4 1539 -8 464 -8
465 -33 532 -41 110 -127 197 -230 234 -54 19 -415 41 -823 51 -345 8 -345 0
0 88 239 60 290 66 805 90 438 20 611 19 1030 -10 461 -32 773 -42 821 -26 43
14 132 99 124 119 -9 24 -49 68 -80 89 -33 22 -578 239 -743 297 -199 69 -463
136 -539 136 -63 0 -56 18 13 33 118 26 211 29 409 13 262 -22 281 -21 310 9
31 30 32 69 3 90 -36 25 -165 62 -295 85 -65 11 -185 34 -268 50 -353 69 -508
68 -1110 -5 -193 -23 -547 -45 -535 -32 6 6 404 125 1010 301 777 226 752 218
772 252 17 29 17 32 -2 67 -15 28 -17 39 -8 42 7 2 56 16 108 30 154 43 210
87 210 166 0 47 -36 114 -82 153 -104 89 -150 104 -1148 376 -206 56 -379 106
-384 110 -5 5 15 15 44 24 100 30 258 46 560 56 417 14 481 27 538 110 63 93
-12 184 -243 296 -100 49 -162 71 -450 161 -114 36 -123 55 -33 72 200 39 548
115 577 127 178 74 167 240 -18 294 -36 10 -124 26 -196 35 -152 19 -267 43
-260 54 2 5 31 11 64 14 114 12 217 69 242 135 25 65 5 138 -58 212 l-36 42
37 71 c46 91 52 129 36 234 -14 85 -13 86 17 176 25 71 29 96 21 116 -13 37
-38 62 -75 77 -37 16 -58 17 -93 3z"/>
<path d="M6079 11258 c-80 -88 -177 -172 -401 -342 -92 -70 -195 -153 -230
-183 -35 -31 -351 -340 -703 -688 -352 -347 -869 -857 -1150 -1133 -280 -276
-523 -519 -538 -540 -71 -93 11 -220 128 -198 20 4 52 24 79 49 55 52 442 457
900 942 778 823 1555 1563 1924 1833 l83 60 52 -15 c94 -27 226 -97 745 -392
687 -391 1540 -915 2202 -1353 702 -464 1031 -699 1205 -858 50 -46 106 -93
125 -106 19 -13 368 -147 775 -298 407 -151 1134 -421 1615 -601 856 -320
1064 -396 1125 -410 l30 -7 -24 26 c-13 13 -51 36 -85 50 -86 36 -2018 792
-3214 1258 -107 41 -139 63 -307 205 -53 45 -195 152 -316 238 -120 86 -219
158 -219 160 0 2 16 11 35 20 19 9 46 27 60 40 23 22 25 31 25 106 0 45 -7
144 -16 220 -9 76 -14 144 -12 152 3 14 36 2 496 -175 72 -28 132 -56 132 -62
0 -6 -6 -20 -14 -31 -51 -74 -100 -309 -95 -454 4 -86 6 -92 35 -122 62 -62
173 -48 208 26 13 28 15 60 9 197 -5 139 -3 171 11 213 31 93 22 92 201 24
179 -67 349 -145 343 -156 -2 -5 -17 -35 -35 -69 -43 -83 -60 -145 -82 -313
l-20 -144 22 -28 c28 -34 87 -69 118 -69 35 0 88 36 100 67 5 15 9 98 7 192
-2 174 1 190 45 239 11 12 32 22 46 22 40 0 124 -44 228 -117 69 -49 92 -71
87 -82 -53 -128 -73 -234 -76 -394 -3 -111 0 -137 15 -164 30 -55 104 -57 132
-3 12 22 15 66 15 196 0 186 8 227 55 281 l31 36 122 -68 c67 -38 122 -72 122
-76 0 -3 -12 -38 -26 -75 -68 -178 -72 -403 -9 -428 35 -13 82 -6 101 15 16
18 19 39 21 148 1 69 2 143 2 163 1 26 9 47 29 68 l27 31 47 -14 c39 -12 87
-41 200 -118 4 -3 -4 -61 -18 -130 -16 -75 -26 -158 -27 -212 0 -78 2 -90 23
-112 26 -27 46 -31 84 -14 22 10 25 20 31 84 4 40 4 81 1 92 -10 31 12 164 32
195 l18 28 88 -52 c74 -44 86 -55 81 -73 -38 -129 -46 -178 -43 -280 3 -104 4
-109 30 -128 23 -17 31 -19 53 -9 40 18 58 74 52 158 -7 96 7 159 49 222 l36
54 -34 35 c-20 21 -89 62 -183 108 -82 40 -163 86 -178 102 l-28 30 413 6
c227 4 638 7 913 8 275 0 563 4 640 8 77 5 142 7 143 5 10 -7 -33 -238 -57
-313 -42 -130 -373 -1011 -380 -1011 -3 0 -105 79 -226 176 -300 241 -530 421
-572 450 -50 34 -94 32 -132 -7 -17 -17 -31 -36 -31 -42 0 -28 87 -110 168
-158 48 -29 238 -146 422 -259 363 -225 426 -260 465 -260 46 0 90 87 260 515
179 449 246 639 275 779 10 48 14 56 25 45 14 -16 557 -856 771 -1194 139
-219 140 -220 178 -223 l38 -3 -40 58 c-21 32 -61 99 -87 148 -71 130 -116
203 -489 790 l-338 530 12 56 c7 32 9 63 5 69 -4 7 -31 23 -59 36 -43 20 -66
24 -146 23 -52 0 -126 -4 -165 -8 -44 -6 -393 0 -930 15 -473 13 -923 24
-1000 24 -77 0 -160 5 -185 11 -25 5 -398 150 -829 322 l-784 312 -71 64
c-107 96 -180 126 -531 216 -237 60 -296 78 -363 107 l-44 18 56 53 c53 50 56
56 56 100 0 81 -41 119 -166 151 -73 19 -752 163 -969 206 -88 17 -198 43
-245 57 -46 14 -575 248 -1175 520 -1329 604 -1259 574 -1320 580 l-50 5 -66
-74z m1970 -970 c373 -155 430 -185 591 -308 41 -32 152 -113 245 -182 94 -68
247 -181 340 -249 139 -103 312 -224 371 -261 8 -6 11 -2 7 11 -8 32 -65 85
-288 271 -332 278 -557 471 -552 476 7 7 515 -131 910 -247 66 -19 69 -21 62
-46 -22 -87 -25 -200 -10 -365 31 -341 31 -342 9 -330 -10 6 -127 87 -259 181
-671 476 -649 462 -1425 936 -280 171 -470 292 -470 300 0 7 54 -15 469 -187z
m4071 -1588 c209 -78 364 -140 371 -148 4 -4 10 -38 14 -75 l7 -68 -33 17
c-19 9 -58 40 -89 68 -75 71 -92 80 -236 130 -125 44 -180 77 -213 126 -15 23
-15 24 4 16 11 -4 90 -34 175 -66z"/>
<path d="M9424 8810 c-33 -13 -83 -77 -90 -117 -14 -73 17 -520 61 -880 15
-124 41 -214 74 -254 18 -22 18 -18 24 167 4 142 14 249 41 433 42 282 59 480
47 534 -12 50 -35 84 -74 107 -34 21 -51 23 -83 10z"/>
<path d="M3733 8535 c-56 -24 -67 -53 -60 -160 7 -98 25 -229 57 -405 11 -58
33 -197 50 -310 31 -212 49 -291 73 -324 12 -17 15 -3 21 115 4 74 16 275 27
448 10 173 19 372 19 442 0 122 -1 129 -26 158 -23 28 -76 51 -114 51 -8 -1
-29 -7 -47 -15z"/>
<path d="M4914 8360 c-12 -4 -31 -21 -44 -37 l-22 -28 4 -400 4 -400 27 -59
c15 -32 27 -60 27 -62 0 -2 -177 -4 -392 -4 -354 0 -396 -2 -427 -18 -51 -25
-74 -63 -74 -115 2 -73 33 -110 108 -127 19 -4 349 -2 732 5 384 8 1117 18
1628 24 512 6 1277 18 1700 26 1895 36 3482 60 3900 59 204 -1 289 -5 350 -17
44 -8 413 -88 820 -176 768 -166 1273 -273 1965 -416 569 -118 638 -132 695
-140 50 -7 50 -7 31 14 -22 24 -85 45 -181 61 -38 6 -263 51 -499 101 -236 49
-548 114 -695 145 -409 84 -518 114 -1081 299 -499 164 -746 221 -1045 244
-76 6 -1134 13 -2560 17 -2005 6 -2425 9 -2399 20 17 7 43 27 58 44 34 41 34
74 -3 332 -31 218 -56 436 -50 443 2 2 95 7 207 11 l202 7 0 -44 c0 -24 7
-161 15 -304 8 -143 15 -277 15 -298 0 -34 2 -37 19 -28 10 6 22 18 25 28 4
10 11 123 16 253 5 129 12 285 14 346 5 109 5 111 -22 142 l-27 30 -180 12
c-99 7 -233 12 -299 11 -129 0 -142 -5 -173 -66 -14 -25 -15 -70 -8 -335 4
-168 10 -351 14 -408 9 -115 22 -144 82 -174 33 -17 19 -17 -349 -15 l-382 2
41 34 c22 19 45 44 49 57 11 28 -2 159 -40 409 -15 105 -31 222 -35 261 l-7
71 129 6 c70 4 163 7 205 7 72 0 78 -1 82 -22 3 -13 8 -115 11 -228 9 -308 18
-387 44 -413 l21 -21 0 24 c0 14 7 165 14 335 13 282 10 389 -8 436 -7 16
-126 27 -477 45 -120 7 -129 6 -157 -15 -54 -38 -56 -57 -48 -484 4 -214 12
-401 17 -415 5 -14 24 -39 42 -56 l33 -31 -353 0 c-194 0 -353 3 -353 6 0 3 9
14 19 23 11 10 26 32 34 49 20 42 9 169 -39 500 -20 136 -35 249 -33 251 2 2
95 7 206 11 l201 7 6 -84 c3 -45 12 -188 20 -317 13 -208 17 -237 35 -254 19
-20 19 -20 25 24 13 113 27 675 17 701 -21 56 -20 56 -492 84 -118 6 -167 -6
-191 -48 -10 -18 -12 -102 -10 -413 2 -214 8 -406 13 -426 5 -20 20 -53 35
-74 14 -20 24 -38 22 -39 -2 -1 -155 0 -340 2 l-338 4 31 44 c31 42 32 44 25
126 -4 46 -23 206 -42 356 -19 150 -34 279 -34 286 0 11 42 15 196 21 107 4
197 5 200 2 5 -5 42 -475 46 -592 2 -56 6 -70 20 -73 22 -4 23 4 43 328 23
392 21 423 -27 454 -33 21 -564 53 -604 36z"/>
<path d="M8140 6729 c-191 -76 -400 -174 -400 -188 0 -25 32 -33 109 -27 86 8
130 -5 147 -41 13 -29 17 -1758 5 -1877 -7 -63 -24 -137 -45 -198 l-33 -98 43
0 c37 0 53 7 102 45 32 25 74 50 93 55 18 6 126 10 239 10 336 0 441 20 589
111 249 154 413 410 467 729 40 245 -21 493 -158 632 -132 136 -337 162 -528
67 -111 -55 -208 -144 -464 -424 l-36 -40 3 585 c3 634 -1 581 52 713 4 9 3
17 -1 16 -5 0 -88 -31 -184 -70z m822 -974 c104 -36 187 -151 225 -312 27
-116 24 -378 -5 -488 -86 -318 -296 -452 -615 -391 -84 16 -205 62 -265 100
l-39 24 -6 84 c-20 255 14 440 120 653 140 280 363 406 585 330z"/>
<path d="M13190 6771 c-41 -16 -136 -51 -211 -79 -207 -76 -283 -122 -277
-166 3 -23 6 -23 113 -11 56 7 63 5 93 -20 17 -14 36 -43 42 -63 8 -26 10
-310 8 -912 -3 -832 -4 -877 -22 -910 -34 -64 -56 -79 -159 -111 l-99 -31 26
-27 26 -26 263 -3 c144 -2 308 -1 364 3 94 6 103 9 118 32 9 14 14 27 12 30
-3 2 -40 13 -82 24 -94 23 -130 43 -158 89 -21 34 -22 47 -26 330 -3 278 -2
293 14 280 10 -8 134 -160 277 -339 143 -178 283 -353 312 -388 l51 -64 247 3
c245 3 247 3 272 27 l26 25 -92 33 c-145 51 -280 143 -393 265 -76 82 -466
570 -463 578 5 12 373 315 442 365 107 76 210 131 301 160 90 28 100 35 110
78 l7 27 -402 0 -401 0 3 -36 c3 -36 3 -36 81 -59 104 -30 120 -45 115 -111
-3 -29 -14 -67 -27 -88 -29 -46 -171 -173 -348 -312 l-134 -105 3 713 3 713
31 45 c46 68 47 70 27 69 -10 0 -52 -13 -93 -28z"/>
<path d="M3018 6573 c-64 -4 -68 -5 -68 -28 0 -32 31 -51 102 -64 86 -15 113
-33 135 -88 17 -45 18 -97 18 -903 0 -835 0 -856 -20 -895 -26 -52 -73 -82
-140 -90 -61 -8 -98 -35 -93 -68 l3 -22 475 0 c527 0 533 1 691 69 214 93 398
278 468 469 23 64 26 87 26 207 0 121 -2 140 -24 188 -30 67 -104 134 -178
162 -31 11 -104 28 -162 36 -58 8 -121 17 -138 20 -32 5 -32 6 90 103 146 116
204 180 258 284 120 231 73 469 -113 563 -108 55 -129 56 -718 59 -300 1 -575
0 -612 -2z m907 -99 c105 -30 192 -121 245 -257 41 -104 55 -214 41 -317 -12
-93 -36 -145 -86 -188 -73 -65 -162 -82 -419 -82 l-176 0 0 394 0 395 64 31
c101 50 212 58 331 24z m-30 -949 c191 -53 336 -200 380 -386 17 -73 20 -231
5 -308 -34 -183 -193 -310 -385 -311 -77 0 -172 27 -255 71 -123 66 -110 7
-110 517 l0 445 153 -6 c94 -3 175 -12 212 -22z"/>
<path d="M6880 5994 c-110 -33 -193 -66 -312 -125 -86 -43 -98 -53 -106 -81
-5 -18 -8 -35 -6 -36 1 -2 36 4 77 13 102 23 136 18 163 -23 33 -48 38 -161
28 -666 l-9 -443 -30 -48 c-30 -48 -31 -49 -139 -83 l-109 -34 27 -26 26 -27
415 0 c446 0 433 -1 449 52 6 20 3 22 -71 28 -181 15 -248 49 -284 142 -43
115 -34 372 23 598 63 252 176 449 291 504 55 26 130 27 177 2 49 -26 87 -105
97 -201 l8 -75 63 -3 62 -3 0 265 0 265 -56 7 c-103 12 -185 1 -250 -36 -88
-51 -194 -158 -312 -318 l-107 -144 -3 261 c-2 199 -5 261 -15 260 -6 0 -50
-11 -97 -25z"/>
<path d="M11700 5981 c-127 -46 -181 -68 -283 -115 -66 -30 -80 -40 -93 -72
-8 -20 -13 -38 -11 -40 2 -3 39 3 81 12 56 13 87 15 114 8 68 -17 67 -8 70
-568 3 -566 1 -590 -57 -647 -29 -28 -51 -39 -113 -53 -86 -20 -105 -34 -89
-64 9 -16 26 -20 121 -26 120 -8 737 -7 757 1 15 6 18 59 4 67 -5 3 -53 10
-107 16 -211 23 -265 96 -264 354 1 296 121 680 259 830 38 42 117 76 176 76
67 0 115 -25 143 -76 20 -37 28 -68 48 -191 5 -33 6 -33 59 -33 l55 0 0 264 0
264 -31 6 c-51 10 -163 7 -200 -6 -127 -43 -274 -189 -435 -432 l-59 -89 -3
276 c-2 255 -4 277 -20 276 -9 0 -64 -17 -122 -38z"/>
<path d="M5541 5989 c-142 -30 -320 -103 -473 -196 l-58 -34 0 -210 0 -209 50
0 c32 0 52 5 55 13 2 6 15 55 29 107 55 201 171 369 289 420 106 46 233 36
293 -24 43 -43 55 -88 61 -231 l5 -120 -183 -95 c-449 -232 -650 -390 -736
-576 -39 -85 -38 -193 1 -281 34 -74 103 -144 173 -174 146 -63 355 33 634
291 54 50 100 90 103 90 3 0 5 -55 4 -122 0 -134 7 -191 28 -225 41 -66 147
-70 266 -10 87 44 214 139 245 186 23 33 40 97 30 107 -3 3 -35 -15 -70 -40
-107 -76 -190 -105 -214 -73 -23 28 -26 98 -32 667 l-6 595 -28 50 c-15 28
-42 60 -60 72 -68 46 -246 55 -406 22z m262 -691 c-21 -273 -84 -460 -198
-585 -89 -98 -199 -141 -315 -122 -205 33 -250 281 -84 459 105 113 281 215
466 271 135 41 136 40 131 -23z"/>
<path d="M15175 5994 c-152 -28 -312 -93 -477 -192 l-78 -47 0 -207 0 -208 38
0 c21 0 45 6 54 13 8 6 32 66 52 132 48 151 86 223 159 302 72 77 142 113 232
121 115 9 184 -26 218 -108 19 -45 31 -184 22 -249 l-7 -51 -166 -87 c-92 -48
-214 -115 -272 -149 -210 -124 -399 -294 -456 -410 -26 -54 -29 -68 -29 -164
0 -98 2 -109 30 -158 58 -106 161 -172 265 -172 129 0 324 114 537 314 50 47
94 86 97 86 3 0 5 -62 4 -137 -2 -113 1 -146 16 -180 55 -129 223 -105 429 60
83 66 127 124 127 170 0 15 -3 27 -6 27 -3 0 -33 -20 -67 -44 -121 -85 -186
-105 -221 -67 -16 17 -17 70 -20 612 -3 516 -6 601 -20 646 -21 67 -59 111
-115 136 -61 27 -234 32 -346 11z m239 -691 c-40 -341 -90 -486 -212 -611
-108 -110 -273 -137 -391 -64 -95 58 -124 194 -69 314 74 159 306 315 578 389
100 27 101 27 94 -28z"/>
<path d="M10292 5989 c-249 -42 -506 -267 -618 -543 -51 -125 -67 -212 -67
-361 0 -153 20 -240 84 -374 81 -167 248 -294 443 -337 103 -22 279 -15 384
15 270 78 504 310 603 599 30 86 45 283 31 399 -22 184 -78 309 -192 424 -134
135 -279 190 -494 188 -67 -1 -145 -5 -174 -10z m139 -135 c62 -18 146 -63
202 -108 102 -81 222 -274 262 -421 26 -94 32 -324 11 -419 -24 -104 -75 -202
-139 -265 -70 -69 -100 -87 -176 -111 -110 -35 -213 -23 -341 37 -96 46 -223
171 -292 288 -88 149 -136 343 -124 500 19 262 146 445 346 501 64 18 187 17
251 -2z"/>
</g>
</svg>
