<svg xmlns="http://www.w3.org/2000/svg" viewBox="0 0 400 185" height="185" width="400"><style>.a{fill:#fff;}.b{fill:#266e40;}.c{fill:#2b2a29;}</style><path d="M0 0L400 0 400 120.7C397.6 117.6 396.3 114.1 394.2 110.9 388.1 101.5 382.3 92 376.2 82.6 376.4 81.6 376.6 80.7 376.9 79.7 373.6 76.4 368.2 78.6 364 78.4 350.7 78 337.3 77.7 324 77.3 320.5 77 316.6 77.7 313.2 76.7 300.7 71.6 288 66.6 275.4 61.6 272.7 60.7 271.7 57.9 268.9 57.1 262.5 54.2 255.3 53.9 248.9 51 250.2 49.7 252 49 251.9 47 251.8 44.3 249.1 43.8 247 43.2 237.6 41.2 228.2 39.1 218.8 37.3 215.7 36.6 213 35.2 210.1 33.9 193.4 26.3 176.6 18.7 159.9 11.1 157.9 10.3 155.6 8.7 153.4 9.4 148.3 15.9 140.5 19.9 134.6 25.6 115.7 44.3 96.7 63 77.7 81.7 76.9 82.7 75.5 83.6 75.7 85 75.5 87.9 79.4 89.3 81.3 87.3 91.1 77.2 100.9 66.8 110.6 56.6 119.5 46.8 129.4 38 138.8 28.8 143.9 24.5 148.7 19.7 154.3 16.1 156.8 16.5 159.5 18.1 161.8 19.2 170.3 24.1 178.9 28.8 187.3 33.7 198.4 40.6 209.6 47.3 220.6 54.3 232.9 62.6 245.2 70.3 256.8 79.2 259.2 81.1 261.3 84 264.1 85 289.8 94.5 315.5 104.1 341.2 113.7 344.6 114.9 347.8 116.4 351.3 117.1 349.7 115.1 346.8 114.6 344.5 113.6 319.8 103.9 295.1 94.2 270.4 84.6 268.5 83.8 266.5 83.3 264.8 82.2 262.7 80.7 260.9 78.8 258.8 77.2 255 74.2 250.8 71.6 246.9 68.6 248.3 67.9 249.6 67.6 250.1 66 250.2 62.3 249.5 58.4 249.1 54.7 254.4 56.9 259.8 58.7 265.1 60.9 262.7 65.2 262 70 262.3 74.9 263 78.1 268 78.2 268.7 74.9 269 71 267.2 66.6 269.9 63.3 274.2 64.9 278.5 66.3 282.6 68.6 279.5 72.7 279.8 77.1 279 82 280.6 83.8 282.2 85.2 284.5 83.5 286.9 80.7 283 73.2 287.1 71.2 290 71.4 293.2 74.3 295.5 75.9 294.1 78.8 293.5 81.7 293.4 85 293.4 86.9 292.9 89.2 294.2 90.9 295.7 91.7 297 91.3 297.5 89.5 298.2 85.3 295.8 80.6 299.7 77.5 301.8 78.6 303.9 79.7 305.9 81 304 84.6 303.6 88.1 303.8 92.1 304.2 93.8 306 94.4 307.4 93.4 309.2 90.8 306.4 85.1 309.2 83.1 311.3 83 313.9 85.2 315.7 86.4 315.3 89.6 314 92.7 314.4 96.1 314.4 98.1 316 98.9 317.7 97.7 318.4 94.1 317 91 319.1 88 320.6 88.9 322.1 89.7 323.6 90.7 322.2 93.8 321.9 97.3 322.3 100.7 324.4 103.3 326.2 100.2 325.7 98 325.4 94.7 325.7 93.4 327.8 90.8 325.2 86.9 320.1 87.5 317.1 83.7 331.1 83.7 345 83.5 359 83.5 362.7 83.5 366.3 83.3 370 83.1 369.7 86.2 369.3 89.2 368.2 92.1 365.2 100.2 362.1 108.3 359.1 116.4 352.5 111.2 346 105.8 339.3 100.7 337.2 99.1 336 100.1 334.8 101.9 335.8 103.1 336.6 104.3 338 105.1 343.4 108.2 348.7 111.7 354 114.9 356.3 116.2 358.5 118 360.9 118.8 361.6 119 362.2 118.6 362.7 117.7 365.8 112.4 367.3 106.7 369.9 100.9 371.9 95.6 374.1 90.4 375.1 84.8 382.8 96.7 390.6 108.6 398.1 120.6 398.7 120.7 399.4 120.8 400 120.9L400 185 200.3 185C201.5 184.1 202.6 182.7 204.1 182.4 210.1 181.5 217.8 183.4 223.3 180.3 232 175.9 236.6 166.5 236.8 157 236.5 152.5 235.2 147.5 231.5 144.5 228.2 141.7 222.6 141.8 218.9 143.9 214 146.6 210.6 151.4 206.8 155.4 206.7 146.3 206.8 137.1 206.8 128 206.7 125.9 207.6 124.3 208.3 122.4 203.4 124.5 198 126.1 193.5 128.9 194.3 131.5 198.4 127.5 200.1 131 200.4 145.6 200.1 160.4 200.2 175 200.3 178.6 199.5 181.8 198 185L0 185 0 0Z" class="a"/><path d="M51.2 1.1C53.2-0.7 56.2 0.6 56.7 3.1 56.2 5.6 54.6 7.3 55.5 9.8 56.5 12.9 55.1 14.9 53.6 17.4 55.3 19.2 57.2 21.2 56 24 54.4 27 50.7 27.1 47.7 27.5 51.4 28.7 55.1 28.8 58.9 29.4 61.1 29.9 63.9 31.3 63.4 34 62.9 36.3 60.1 37.4 58 37.8 53.3 38.6 48.7 39.9 44 40.6 44.3 41.1 44.6 41.5 45.1 41.7 51.2 43.4 58.6 45.3 63.4 49.5 65.6 51.8 64.3 54.6 61.5 55.4 53.1 57.3 43 55.1 34.9 58.2 46.1 61.3 57.4 64.3 68.6 67.5 71.5 68.5 76.4 71.2 75.7 74.9 75.2 78 69.9 78.4 67.4 79.2 68.3 80.7 69 80.9 67.7 82.6 52.9 87.1 37.8 91.2 22.9 95.8 36.9 96.1 48.6 91.7 62 94.2 67.5 95.7 73.8 95.7 78.9 98.1 80 99.5 78.5 101.2 77 101 70.6 101 65 99.2 58.5 101.5 69.3 102.4 80.2 107.7 90.4 111.6 92.6 112.4 93.4 113 94.6 115 93 117 91.8 118.2 89 118.1 77.7 118 66.3 116.4 55 116.4 46.9 117 38.6 116.9 30.5 117.8 26 118.7 21.5 120 17.1 121.2 25.8 121 34.4 121.7 43 122.1 48.2 122.4 51.9 126.9 51.9 132 52.3 147 52.1 162 52.2 177 52.1 178.3 52.5 180.5 51.3 181.3 50 182.6 47.9 182.5 46.5 181.5 45.4 180.1 45.6 178.6 45.5 177 45.7 162.7 45.8 148.3 46 134 46 132.3 45.5 129 43.7 128.3 31.5 127 19.3 126.7 7 127.2 4.9 127 1.4 127.5 0.4 125.1 -0.1 122.4 2.8 120.7 4.9 119.9 12.9 116.5 21.4 113.6 30 112.2 38.7 111.8 47.3 111.8 56 111.3 63.8 111.6 71.7 112.2 79.5 112.5 70.4 108.3 60.2 105.1 50 104.9 45.3 104.8 41.7 106.8 37 107.7 31.4 108.8 25.7 111 20 111.1 18 111.3 17.4 110.2 16.1 109.1 16.6 108.3 17.3 107.6 18 106.9 26.9 103.8 36.7 102.6 46 100.9 49.2 100.3 51.9 98.6 55 97.7 57.3 97.2 59.8 97.4 62.2 97.4 59.8 96.5 57.5 95.8 55 95.9 44.7 95.9 34.3 96.3 24 97.5 21.9 97.5 18.8 98.3 17 97 16.6 95.4 18.1 94.9 19.3 94.4 32.5 90.1 46.1 86.9 59.2 82.3 54.1 81.5 49 81.5 44 81 39 80 34.1 78.4 29 77.6 26.9 77.1 24.9 77.4 23.9 75 24.4 72.8 26 72.5 28 73 35.9 75 44.8 74.3 53 74.6 59.2 74.5 64.5 75.5 70.3 73.8 68.6 72.7 67 71.6 65 71.2 54.9 68.5 44.9 66 34.8 63.3 31.8 62.4 27.9 61.5 27.1 57.9 27.4 55.6 28.7 54.4 31 53.9 38.5 52.1 46.8 52.7 54.3 50.6 47.8 48.7 41.3 46.5 34.8 44.5 33.3 43.9 31.6 43.7 30.7 42.1 29.6 40.3 31.2 38.5 32.9 37.8 37.6 35.7 43.1 35.8 48 33.9 42.8 31.9 37.4 29.4 33.2 25.8 31 23.9 32.1 20.8 35 20.5 38.9 20.7 42.9 21.3 46.9 21.3 44.7 19.7 42.3 18.8 41.6 16 41.8 12.3 45.8 11.7 48.7 11.1 48.6 7.9 48.6 3.4 51.2 1.1Z" class="b"/><path d="M153.4 9.4C155.6 8.7 157.9 10.3 159.9 11.1 176.6 18.7 193.4 26.3 210.1 33.9 213 35.2 215.7 36.6 218.8 37.3 228.2 39.1 237.6 41.2 247 43.2 249.1 43.8 251.8 44.3 251.9 47 252 49 250.2 49.7 248.9 51 255.3 53.9 262.5 54.2 268.9 57.1 271.7 57.9 272.7 60.7 275.4 61.6 288 66.6 300.7 71.6 313.2 76.7 316.6 77.7 320.5 77 324 77.3 337.3 77.7 350.7 78 364 78.4 368.2 78.6 373.6 76.4 376.9 79.7 376.6 80.7 376.4 81.6 376.2 82.6 382.3 92 388.1 101.5 394.2 110.9 396.3 114.1 397.6 117.6 400 120.7L400 120.9C399.4 120.8 398.7 120.7 398.1 120.6 390.6 108.6 382.8 96.7 375.1 84.8 374.1 90.4 371.9 95.6 369.9 100.9 367.3 106.7 365.8 112.4 362.7 117.7 362.2 118.6 361.6 119 360.9 118.8 358.5 118 356.3 116.2 354 114.9 348.7 111.7 343.4 108.2 338 105.1 336.6 104.3 335.8 103.1 334.8 101.9 336 100.1 337.2 99.1 339.3 100.7 346 105.8 352.5 111.2 359.1 116.4 362.1 108.3 365.2 100.2 368.2 92.1 369.3 89.2 369.7 86.2 370 83.1 366.3 83.3 362.7 83.5 359 83.5 345 83.5 331.1 83.7 317.1 83.7 320.1 87.5 325.2 86.9 327.8 90.8 325.7 93.4 325.4 94.7 325.7 98 326.2 100.2 324.4 103.3 322.3 100.7 321.9 97.3 322.2 93.8 323.6 90.7 322.1 89.7 320.6 88.9 319.1 88 317 91 318.4 94.1 317.7 97.7 316 98.9 314.4 98.1 314.4 96.1 314 92.7 315.3 89.6 315.7 86.4 313.9 85.2 311.3 83 309.2 83.1 306.4 85.1 309.2 90.8 307.4 93.4 306 94.4 304.2 93.8 303.8 92.1 303.6 88.1 304 84.6 305.9 81 303.9 79.7 301.8 78.6 299.7 77.5 295.8 80.6 298.2 85.3 297.5 89.5 297 91.3 295.7 91.7 294.2 90.9 292.9 89.2 293.4 86.9 293.4 85 293.5 81.7 294.1 78.8 295.5 75.9 293.2 74.3 290 71.4 287.1 71.2 283 73.2 286.9 80.7 284.5 83.5 282.2 85.2 280.6 83.8 279 82 279.8 77.1 279.5 72.7 282.6 68.6 278.5 66.3 274.2 64.9 269.9 63.3 267.2 66.6 269 71 268.7 74.9 268 78.2 263 78.1 262.3 74.9 262 70 262.7 65.2 265.1 60.9 259.8 58.7 254.4 56.9 249.1 54.7 249.5 58.4 250.2 62.3 250.1 66 249.6 67.6 248.3 67.9 246.9 68.6 250.8 71.6 255 74.2 258.8 77.2 260.9 78.8 262.7 80.7 264.8 82.2 266.5 83.3 268.5 83.8 270.4 84.6 295.1 94.2 319.8 103.9 344.5 113.6 346.8 114.6 349.7 115.1 351.3 117.1 347.8 116.4 344.6 114.9 341.2 113.7 315.5 104.1 289.8 94.5 264.1 85 261.3 84 259.2 81.1 256.8 79.2 245.2 70.3 232.9 62.6 220.6 54.3 209.6 47.3 198.4 40.6 187.3 33.7 178.9 28.8 170.3 24.1 161.8 19.2 159.5 18.1 156.8 16.5 154.3 16.1 148.7 19.7 143.9 24.5 138.8 28.8 129.4 38 119.5 46.8 110.6 56.6 100.9 66.8 91.1 77.2 81.3 87.3 79.4 89.3 75.5 87.9 75.7 85 75.5 83.6 76.9 82.7 77.7 81.7 96.7 63 115.7 44.3 134.6 25.6 140.5 19.9 148.3 15.9 153.4 9.4Z" class="b"/><path d="M394.2 12.1C395.9 11 396.5 13.4 394.8 13.8 393.8 13.6 393.7 13 394.2 12.1Z" fill="#dededd"/><path d="M188.7 30.2C195.2 32.7 201.5 35.5 207.9 38.1 212.4 39.7 216 43.3 220 46 226.8 50.8 233.3 56.1 240.3 60.6 239.8 58.4 237.1 57 235.5 55.5 229.9 50.6 224.1 46 218.6 41.1 226.9 43.3 235.2 45.5 243.5 48 241.9 53.8 243.7 60.5 243.8 66.4 233.5 59.4 223.6 51.5 212.8 45.2 204.8 40.1 196.5 35.5 188.7 30.2Z" class="a"/><path d="M237.6 72.4C239.1 73.1 239.5 74.5 239.7 76 239.6 85.8 236.4 94.4 237.4 104.3 234.5 101.8 234.9 95.7 234.3 92 233.9 86.7 233.1 81.3 233.2 76 233.1 74 235.5 71 237.6 72.4Z" class="b"/><path d="M298 73.1C302.8 74.8 307.6 76.7 312.4 78.6 312.6 79.8 312.7 81.1 312.8 82.3 311.6 81.8 310.6 81.2 309.8 80.1 306.3 76.1 300.7 77.8 298 73.1Z" fill="#ccddd2"/><path d="M98.1 82C98 91.3 97 100.6 96.7 109.9 95 107.2 95 104.1 94.5 101 93.7 94.4 91.8 87.6 91.7 81 92.5 77.5 98.3 78.4 98.1 82Z" class="b"/><path d="M124 83.3C128.2 83.4 132.7 83.7 137 84 138.6 84.2 139.1 85.5 139 87 139 92.6 138.3 98.3 138.1 103.9L137.1 103.9C137 98.3 136.3 92.8 136 87.2 132.6 87.3 129.3 87.5 126 87.5 126.5 93.7 127.7 99.8 128.1 106 127.6 106.7 127 107.5 126.5 108.2 132.2 108.3 137.9 108.2 143.6 108.4 142.5 106.9 141.7 106 141.8 104 141.9 98 141.5 92 141.6 86 141.6 84 143.2 83.1 145 83.3 149 83.4 153.1 83.7 157 84 158.8 84 159.3 85.4 159.3 87 159 92.7 158.8 98.5 158.6 104.2 157.2 103.5 157.5 102.4 157.3 101 156.9 96.4 156.8 91.8 156.5 87.2 153.1 87.3 149.6 87.5 146.2 87.6 146.9 93.4 148.2 99.2 148.4 105 148.7 106.5 147.3 107.4 146.5 108.4 152.5 108.2 158.7 108.2 164.6 108.5 163.4 107.5 162.3 106.8 162.3 105 162.1 99 162 93 162 87 161.9 85.2 162.2 84.2 163.9 83.3 168.9 83.2 174 83.8 179 84.1 180.1 86.7 179.6 89.2 179.5 92 179.3 96.1 179.3 100.2 179 104.3 177.5 103.6 177.9 102.4 177.7 101 177.4 96.5 177.2 91.9 177.1 87.3 173.6 87.2 170.1 87.4 166.7 87.6 167.1 93.5 168.6 99.2 168.9 105 169.1 107 167.6 107.4 166.3 108.5 170.2 108.2 174.1 108.4 178 108.4 221.3 108.5 264.7 108.7 308 108.8 325.2 109.1 341.3 117.6 358 121.3 369.4 123.6 380.6 126 392 128.4 394.3 128.9 397.7 128.8 399.3 130.8 396.1 130.6 393.1 129.7 390 129.1 364.9 124 339.9 118.6 314.9 113.2 306.7 110.8 297.4 112.1 289 112.1 265.3 112.1 241.7 112.9 218 113.1 180.7 114.1 143.3 114 106 114.9 104.2 114.9 102.6 115.2 101.1 113.8 99.5 111.9 100.5 108.7 103.1 108.3 109.7 108 116.3 108.2 122.9 108.3 122.2 106.8 121.3 105.7 121.4 104 121.3 98 121.1 92 121.2 86 121 84.6 122.6 83.1 124 83.3Z" class="b"/><path d="M183.9 83.4C188.9 83.1 194 83.9 198.9 84 199.4 84.5 199.8 85 200.2 85.5 200.1 90.4 199.8 95.2 199.7 100 199.4 101.6 200.2 103.6 198.3 104.3 197.9 98.6 197.8 92.9 197.4 87.2 194 87.3 190.6 87.4 187.2 87.6 187.6 92.5 188.2 97.2 189 102 189.2 103.5 189.9 106.4 188.3 107.4 186.5 109.2 183 108.3 182.8 105.5 182.4 100.4 182.5 95.2 182.2 90 182.3 87.3 181.5 85.2 183.9 83.4Z" fill="#276e41"/><path d="M208.3 122.4C207.6 124.3 206.7 125.9 206.8 128 206.8 137.1 206.7 146.3 206.8 155.4 210.6 151.4 214 146.6 218.9 143.9 222.6 141.8 228.2 141.7 231.5 144.5 235.2 147.5 236.5 152.5 236.8 157 236.6 166.5 232 175.9 223.3 180.3 217.8 183.4 210.1 181.5 204.1 182.4 202.6 182.7 201.5 184.1 200.3 185L198 185C199.5 181.8 200.3 178.6 200.2 175 200.1 160.4 200.4 145.6 200.1 131 198.4 127.5 194.3 131.5 193.5 128.9 198 126.1 203.4 124.5 208.3 122.4Z" class="c"/><path d="M332.7 122.3C332 123.4 331.3 124.5 330.6 125.5 330.4 137.4 330.6 149.2 330.4 161.1 334.3 158.1 338.3 155.1 341.7 151.7 343.2 150.2 343.5 149.1 343.2 147 342.2 145.7 339.9 145.5 338.3 145.1 338.3 144.5 338.3 143.9 338.2 143.3 344.9 143.3 351.5 143.3 358.2 143.3 358.2 144.7 357.6 145.4 356.5 145.5 348.9 147.4 342.8 154.3 336.6 159 339.9 163.1 343.2 167.4 346.6 171.5 350.4 176.1 354.6 179.4 360.6 180.9L359.3 182C355.2 182.4 351 182 346.9 182.2 341.3 175.5 336.1 168.6 330.5 161.9 330.7 166.9 330.2 172.1 330.7 177.1 332.1 180 334.6 179.8 337.3 180.5L336.5 182C331.7 182.3 326.8 182.1 322 182.2 320.1 182 318.2 182.8 317 180.8 318.7 180.2 320.5 179.9 322.1 179.1 323.9 177.4 324.1 175.4 324.1 173 324.1 160.3 324.1 147.7 324.1 135 324 133.3 324.3 131.3 322.8 130.1 321.3 128.7 319.5 129.8 317.7 130.1L317.5 128.8C320.1 126.1 325.2 125.4 328.6 123.6 330 123.1 331.3 122.7 332.7 122.3Z" class="c"/><path d="M73.9 128.2C82.3 128 90.7 128.2 99 128.1 102.8 128.2 107.3 128 110.4 130.7 114 133.6 113.8 139.8 111.6 143.6 109.3 148.1 105.6 150.3 101.8 153.3 105.4 153.7 110 153.8 112.8 156.2 116.4 158.9 115.9 165 114.7 168.8 111.6 176.8 102.5 182.5 94 182.2 87.3 182.2 80.5 182.2 73.8 182.1 73.5 179.2 76.5 180.4 78.3 179.3 80.4 178.1 80.1 175.1 80.3 173 80.3 161.7 80.3 150.3 80.3 139 80.2 136.7 80.5 133.7 79.3 131.8 78.1 129.5 72.9 131.5 73.9 128.2Z" class="c"/><path d="M99.1 130.9C104.4 133.6 106.2 140.6 105.2 146 104.8 148.7 102.7 150.8 100.1 151.3 96.3 152.1 92.1 151.7 88.2 151.7 88.2 145.2 88.2 138.7 88.2 132.2 91 129.7 95.8 129.6 99.1 130.9Z" class="a"/><path d="M146.9 142.6C149.6 143.1 150.8 145.4 150.9 148 151.4 157.7 150.6 168 151.4 177.7 153.3 179.8 157.3 175.8 159.1 174.8 159.1 178.4 156.1 179.6 153.6 181.6 151 183.1 147.3 185 145.1 181.8 144.4 179.1 144.7 176 144.7 173.2 141.5 176.3 137.9 179.8 133.9 181.9 131.4 183.2 128.8 184.2 126.1 183 121 180.8 119.6 174.1 122.8 169.9 127.7 162.9 137.5 158.8 144.8 154.9 144.5 152.2 145.3 147.9 143.1 145.9 140.6 143.8 136 144.6 133.8 146.7 130 150.1 128.9 154.3 127.8 159 126.9 159 126.1 158.9 125.2 158.9 125.2 155.4 125.2 152 125.3 148.5 132 144.5 138.8 141.2 146.9 142.6Z" class="c"/><path d="M174.7 142C174.8 146.4 174.7 150.8 174.8 155.2 178.2 150.8 181 145.7 186.1 143.1 188.4 142 190.5 142.5 193 142.8 193 147.2 193 151.6 193 156 192 156 190.9 156 189.9 156 189.5 153.2 189.9 150.3 187 148.7 183.8 147.6 181 149.6 179.3 152.3 176.5 156.7 175.1 162 174.5 167.1 174 170.6 173.8 174.4 175.4 177.6 176.9 180.4 181.3 179.9 184 180.3 183.7 181.7 183.1 182.3 182.1 182.1 175.4 182.1 168.7 182.4 162.1 182L160.9 180.8C162.6 180.2 164.4 179.8 166.1 179.2 168 177.6 168.1 175.3 168.1 173 168.2 166.3 168.1 159.7 168.2 153 168 151.2 168.4 149.4 166.8 148.1 165.1 147.6 163 148.5 161.3 148.8L161.8 147C165.3 145 170.7 142.7 174.7 142Z" class="c"/><path d="M295.9 141.9C296.1 146.6 295.9 151.3 296 156 299.1 151.4 302.3 146 307.3 143.3 309.6 142 311.8 142.4 314.2 142.8 314.2 147.2 314.3 151.6 314.2 156 313.3 156 312.4 156 311.5 156 311.1 153.6 311.2 151.4 309.6 149.4 307.3 147.4 303.5 148.6 301.8 150.8 298.3 155.2 296.9 161.6 295.9 167 295.6 170.3 295 175.1 297.1 177.9 298.8 180.4 302.5 179.8 305.1 180.3 305.6 181.7 305.2 182.4 304 182.1 297.1 182 290 182.5 283.2 181.9 281.7 180 284.9 180.2 285.9 179.7 288.6 179.3 289.4 177.1 289.5 174.6 289.7 167.8 289.5 160.9 289.6 154 289.5 152.2 289.8 149.9 288.6 148.4 287 147.4 284.5 148.5 282.7 148.8 282.9 148 283.2 147.3 283.6 146.7 287.5 144.9 291.7 143 295.9 141.9Z" class="c"/><path d="M387.5 142.7C390.6 143.6 391.1 146.2 391.3 149 391.6 158.4 391.1 168 391.5 177.4 393.2 180.2 397.5 175.8 399.3 174.8 399.6 178 396.4 179.5 394.3 181.3 391.9 182.8 388 185 385.7 182.2 384.2 179.9 385.2 175.9 385 173.2 381 177 376.3 181.7 371 183.2 366.5 184.8 361.6 180.6 361.5 176 361 171.8 363.5 168.9 366.3 166.3 371.6 161.4 378.6 158.2 384.9 155 384.7 151.9 385.8 147.2 382.6 145.3 379.1 143.8 375.3 145 372.9 147.9 369.9 151.1 369.3 154.8 368 158.8L365.6 159.1C365.5 155.6 365.6 152.2 365.5 148.7 371.6 144.5 380 141 387.5 142.7Z" class="c"/><path d="M254.5 143.5C261.5 141.3 269.9 142.1 274.9 148.1 279.3 153.3 279.5 160 278.4 166.5 276.3 174.2 270 181.3 262 183 254.9 184.7 247 182.5 243 176.1 236 164.4 242.1 148.4 254.5 143.5Z" class="c"/><path d="M253.4 146.4C257.3 144.9 261.6 145.7 264.9 148.1 270.5 152.2 273.4 159.2 273.1 166 273.2 171 271.1 176.1 266.6 178.6 262.5 180.8 257.5 179.7 254 177 247.6 172 244.4 163.1 246.3 155.2 247.4 151.3 249.4 147.8 253.4 146.4Z" class="a"/><path d="M224.3 148.7C226.9 149.6 228.4 152.3 229.3 154.8 230.6 159.2 230.6 164.1 229.6 168.5 228.8 172 226.9 175.7 223.5 177.5 218.3 180.1 211.3 178.5 206.6 175.4 206.2 170.9 205.8 166.6 207.3 162.2 208.6 157.7 211 152.7 215 149.9 217.7 148.2 221.2 147.3 224.3 148.7Z" class="a"/><path d="M88.2 153.7C93.8 153.6 99.1 153.5 103.4 157.7 107.3 161.4 107.9 166.9 107 172 106.3 175.6 103.5 178.4 100 179.2 95.7 180.3 91.5 178.6 88.1 175.9 88.3 168.5 88.2 161.1 88.2 153.7Z" class="a"/><path d="M145.2 158.6C144.9 164.3 144 170.7 140 175 137.7 177.7 133.1 178.9 130 177 126.4 174.6 127.1 169.5 129.7 166.6 133.5 162.3 139.6 159.7 145.2 158.6Z" class="a"/><path d="M385.5 158.6C384.9 164.6 384.5 170.5 380.2 175.2 377.8 177.8 373.2 178.9 370.2 176.9 366.7 174.5 367.3 169.7 369.8 166.8 373.6 162.3 379.9 159.7 385.5 158.6Z" class="a"/></svg>
